<?xml version="1.0" encoding="utf-8"?>
<!-- Svg Vector Icons : http://www.onlinewebfonts.com/icon -->
<!DOCTYPE svg PUBLIC "-//W3C//DTD SVG 1.1//EN" "http://www.w3.org/Graphics/SVG/1.1/DTD/svg11.dtd">
<svg version="1.1" xmlns="http://www.w3.org/2000/svg" xmlns:xlink="http://www.w3.org/1999/xlink" x="0px" y="0px" viewBox="0 0 1000 1000" enable-background="new 0 0 1000 1000" xml:space="preserve">
<metadata> Svg Vector Icons : http://www.onlinewebfonts.com/icon </metadata>
<g><g transform="translate(0.000000,512.000000) scale(0.100000,-0.100000)"><path d="M1208.6,5003.2c-55.6-23-128.4-88.2-159.1-141.8c-17.3-28.7-24.9-515.5-32.6-1797.7l-9.6-1761.3l-97.7-40.2C511,1091.6,181.3,696.8,116.1,307.7C52.9-69.8,175.6-422.4,480.3-727.2c128.4-130.3,197.4-182.1,323.9-243.4c88.2-44.1,170.6-80.5,185.9-80.5c21.1,0,26.8-287.5,30.7-1770.9c5.7-1755.5,5.7-1772.8,46-1824.5c74.7-101.6,136.1-132.2,256.8-132.2c120.7,0,182.1,30.7,256.8,132.2c40.2,51.7,40.2,69,46,1824.5c3.8,1483.4,9.6,1770.9,30.7,1770.9c15.3,0,97.7,36.4,185.9,80.5c126.5,63.2,195.5,115,323.9,243.4c170.6,170.6,264.5,322,337.3,538.5c44.1,130.3,49.8,444.6,9.6,584.6c-101.6,364.1-412.1,711-776.2,866.3l-97.7,40.2l-9.6,1763.2c-9.6,1744-9.6,1765.1-49.8,1816.9c-21.1,28.8-61.3,70.9-88.2,90.1C1432.8,5016.6,1279.5,5033.9,1208.6,5003.2z M1601.5,675.7c124.6-55.6,226.1-155.2,281.7-277.9c63.2-139.9,63.2-419.7,0-559.6c-55.6-122.7-157.2-222.3-279.8-277.9c-136.1-59.4-421.6-59.4-559.6,0C923-387.9,821.4-286.4,763.9-159.9c-63.2,138-63.2,417.8,0,555.8c105.4,230,302.8,341.1,588.4,329.6C1459.6,719.8,1534.4,706.4,1601.5,675.7z"/><path d="M4798.2,5005.1C4301.8,4899.7,3861,4439.8,3792,3956.8c-53.7-369.9,70.9-709.1,366.1-1004.3c128.4-128.4,199.3-182.1,325.8-243.4c88.2-44.1,172.5-80.5,185.9-80.5c23,0,26.8-559.6,30.7-3610.7l5.7-3612.7l40.2-51.7c74.7-101.6,136.1-132.2,256.8-132.2c120.7,0,182.1,30.7,256.8,132.2l40.3,51.7l5.7,3612.7c3.8,3051.1,7.7,3610.7,30.7,3610.7c13.4,0,97.8,36.4,185.9,80.5c208.9,103.5,454.2,343.1,557.7,542.4c115,224.2,139.9,322,139.9,546.2c0,333.5-109.2,580.7-373.7,843.3c-168.7,168.7-302.8,254.9-511.7,327.7C5208.3,5012.8,4924.7,5032,4798.2,5005.1z M5281.2,4355.4c124.6-55.6,226.2-155.2,281.7-277.9c61.3-139.9,61.3-419.7,0-559.6c-55.6-120.7-157.2-222.3-281.7-279.8c-139.9-63.2-417.8-63.2-557.7,0c-120.7,55.6-222.3,157.2-279.8,281.7c-63.2,138-63.2,417.8,0,555.8c105.4,230,302.8,341.1,588.4,329.6C5139.4,4399.5,5214.1,4386.1,5281.2,4355.4z"/><path d="M8558.4,4997.5c-70.9-32.6-134.2-99.7-161-170.6c-15.3-38.3-21.1-1146.1-21.1-3637.6c0-3037.7-3.8-3582-26.8-3582c-13.4,0-97.7-36.4-185.9-80.5c-210.8-103.5-454.2-343.1-557.7-542.4c-115-224.2-139.9-322-139.9-546.2c0-333.5,109.2-580.7,373.7-843.3c262.6-264.5,509.8-373.7,843.3-373.7c333.5,0,580.7,109.3,843.3,373.7c264.5,262.6,373.7,509.8,373.7,843.3c0,224.3-24.9,322-139.9,546.2c-103.5,199.3-346.9,438.9-557.7,542.4c-88.2,44.1-172.5,80.5-185.9,80.5c-23,0-26.8,559.6-30.7,3610.7l-5.7,3612.6l-40.2,51.7c-21.1,28.8-61.3,70.9-88.2,90.1C8786.5,5020.5,8635.1,5033.9,8558.4,4997.5z M8960.9-3004c124.6-55.6,226.1-155.2,281.7-277.9c36.4-80.5,44.1-130.3,44.1-279.8c0-149.5-7.7-199.3-44.1-279.8c-55.6-120.8-157.2-222.3-281.7-279.8c-138-63.3-417.8-63.3-557.7,0c-120.8,55.6-222.3,157.1-279.8,281.7c-63.2,138-63.2,417.8,0,555.8c105.4,230,302.8,341.2,588.4,329.7C8819.1-2959.9,8893.8-2973.3,8960.9-3004z"/></g></g>
</svg>