<svg viewBox="0 0 512 512" xmlns="http://www.w3.org/2000/svg"><path d="M368.345 502v-45.498l41.277-114.03a75.29 75.29 0 00-9.85-69.833l-62.989-86.878-38.651 51.748-52.586 251.842V502c0 5.523 4.477 10 10 10h102.798c5.524 0 10.001-4.477 10.001-10z" fill="#fed2a4"/><path d="M399.773 272.64l-62.99-86.878-9.704 12.993 42.694 58.885a75.29 75.29 0 019.85 69.833l-37.618 103.921a61.279 61.279 0 00-3.659 20.858c0 24.714-20.034 44.748-44.748 44.748h-48.05v5c0 5.523 4.477 10 10 10h102.798c5.523 0 10-4.477 10-10v-45.498l41.278-114.03a75.292 75.292 0 00-9.851-69.832z" fill="#ffbd86"/><path d="M314.155 314.819H129.049c-17.219 0-31.178-13.959-31.178-31.178V38.678c0-17.219 13.959-31.178 31.178-31.178h195.474c17.219 0 31.178 13.959 31.178 31.178v234.594c.001 22.946-18.6 41.547-41.546 41.547z" fill="#fee903"/><path d="M324.523 7.5h-3.343a31.031 31.031 0 014.521 16.178v52.831c0 123.331-99.979 223.31-223.31 223.31 5.47 8.993 15.362 15 26.657 15h185.106c22.946 0 41.547-18.601 41.547-41.547V38.678C355.702 21.459 341.743 7.5 324.523 7.5z" fill="#fed402"/><path d="M272.634 360.179h-95.566c-12.526 0-22.68-10.154-22.68-22.68s10.154-22.68 22.68-22.68h95.566zM297.602 405.539h-95.566c-12.526 0-22.68-10.154-22.68-22.68s10.154-22.68 22.68-22.68h95.566z" fill="#ffbd86"/><path d="M245.547 497v-22.832a56.858 56.858 0 00-7.337-27.938l-.237-.42c-21.924-38.865-16.841-87.313 12.674-120.803l10.175-11.545a41.757 41.757 0 0010.35-30.301l-5.935-91.998c-.993-15.391 6.657-30.059 19.858-38.077 12.52-7.605 28.833-.84 32.267 13.38l30.339 125.637a38.767 38.767 0 0017.359 23.912l6.48 3.99z" fill="#fed2a4"/><path d="M270.096 183.086c12.52-7.605 28.833-.84 32.267 13.38l30.339 125.637.08.33c3.854 15.659 24.666 19.048 33.514 5.565l1.07-1.631a7.393 7.393 0 00-2.305-10.352 38.767 38.767 0 01-17.359-23.912l-30.339-125.638c-3.434-14.22-19.747-20.984-32.267-13.38a41.424 41.424 0 00-19.875 33.474 41.787 41.787 0 014.875-3.473z" fill="#ffbd86"/><g fill="#fff"><path d="M226.786 192.787a10.45 10.45 0 01-10.4-9.421l-9.268-93.641c-1.151-11.628 7.983-21.71 19.668-21.71 11.685 0 20.818 10.082 19.668 21.71l-9.268 93.641a10.451 10.451 0 01-10.4 9.421z"/><circle cx="226.786" cy="238.203" r="16.102"/></g><path d="M367.609 326.392a7.5 7.5 0 007.864-12.774l-6.48-3.99a31.053 31.053 0 01-11.731-12.96 48.798 48.798 0 005.943-23.398V38.68c0-21.328-17.352-38.68-38.68-38.68h-195.48c-21.323 0-38.67 17.352-38.67 38.68v139.106a7.5 7.5 0 0015 0V38.68c0-13.057 10.618-23.68 23.67-23.68h195.48c13.057 0 23.68 10.623 23.68 23.68v223.552l-23.551-97.527c-2.203-9.123-8.442-16.424-17.118-20.031-8.691-3.613-18.289-2.885-26.333 2.001-15.64 9.5-24.625 26.731-23.449 44.97l5.935 91.998c.557 8.631-2.101 16.977-7.5 23.675H129.045c-13.052 0-23.67-10.623-23.67-23.68v-75.854a7.5 7.5 0 00-15 0v75.854c0 21.328 17.347 38.68 38.67 38.68h21.929c-2.663 4.557-4.088 9.757-4.088 15.18 0 16.27 12.942 29.565 29.071 30.152-2.671 4.566-4.101 9.775-4.101 15.208 0 16.642 13.539 30.18 30.18 30.18h16.507a111.945 111.945 0 0012.899 36.454l.237.421a49.454 49.454 0 016.369 24.253V504.5a7.5 7.5 0 0015 0v-30.332a64.495 64.495 0 00-8.304-31.623l-.237-.421c-20.327-36.034-15.598-81.107 11.769-112.159l10.174-11.545c8.722-9.896 13.057-22.59 12.208-35.743l-5.935-91.998c-.815-12.645 5.417-24.594 16.267-31.184 3.905-2.372 8.565-2.727 12.787-.971 4.206 1.749 7.229 5.285 8.296 9.702l30.339 125.637c2.887 11.955 10.245 22.09 20.717 28.539zM217.053 398.04h-15.018c-8.371 0-15.18-6.81-15.18-15.18 0-4.058 1.578-7.871 4.437-10.73a15.115 15.115 0 0110.743-4.45h18.167a112.723 112.723 0 00-3.149 30.36zm7.933-45.36h-47.921c-8.37 0-15.18-6.81-15.18-15.18 0-4.059 1.579-7.87 4.453-10.737a15.073 15.073 0 0110.727-4.443h66.033a112.01 112.01 0 00-18.112 30.36zm180.86-84.442l-19.688-27.154a7.498 7.498 0 00-10.474-1.669 7.498 7.498 0 00-1.669 10.474l19.688 27.154a67.75 67.75 0 018.87 62.875c-.893 2.468-41.837 114.068-41.728 116.583v48a7.5 7.5 0 0015 0v-46.684l40.833-112.794a82.74 82.74 0 00-10.832-76.785zm-179.06-53.637c-13.014 0-23.602 10.588-23.602 23.602s10.588 23.602 23.602 23.602 23.602-10.588 23.602-23.602-10.588-23.602-23.602-23.602zm0 32.204c-4.743 0-8.602-3.859-8.602-8.602s3.859-8.602 8.602-8.602 8.602 3.859 8.602 8.602-3.859 8.602-8.602 8.602zm0-186.291c-15.979 0-28.772 14.13-27.131 29.949l9.268 93.641c.913 9.226 8.593 16.183 17.863 16.183s16.95-6.957 17.863-16.183l9.268-93.641c1.65-15.827-11.356-29.949-27.131-29.949zm12.204 28.472l-9.268 93.641c-.15 1.517-1.413 2.66-2.937 2.66s-2.786-1.144-2.937-2.66l-9.268-93.641c-.749-7.116 5.061-13.472 12.204-13.472 7.114 0 12.959 6.364 12.206 13.472z"/></svg>